<svg xmlns="http://www.w3.org/2000/svg" xmlns:xlink="http://www.w3.org/1999/xlink" viewBox="0 0 410 354.67"><defs><linearGradient id="a" x1="63.11" y1="121.39" x2="144.93" y2="121.39" gradientTransform="matrix(1, 0, 0, -1, 0, 356)" gradientUnits="userSpaceOnUse"><stop offset="0" stop-color="#603813"/><stop offset="0.41" stop-color="#534741"/><stop offset="1"/></linearGradient><linearGradient id="b" x1="154.65" y1="106.81" x2="236.32" y2="106.81" xlink:href="#a"/><linearGradient id="c" x1="234.64" y1="106.91" x2="316.27" y2="106.91" xlink:href="#a"/><linearGradient id="d" x1="23.4" y1="230.02" x2="144.99" y2="230.02" xlink:href="#a"/><linearGradient id="e" x1="152.19" y1="228.71" x2="236.82" y2="228.71" xlink:href="#a"/><linearGradient id="f" x1="249.96" y1="244.64" x2="274.5" y2="244.64" xlink:href="#a"/><linearGradient id="g" x1="291.5" y1="244.64" x2="316" y2="244.64" xlink:href="#a"/><linearGradient id="h" x1="23.24" y1="79.68" x2="53.18" y2="79.68" xlink:href="#a"/></defs><title>ColorLogo</title><path d="M40.5,40.17h236a128,128,0,0,1,128,128v181H77a36.5,36.5,0,0,1-36.5-36.5h0V40.17Z" style="fill:none;stroke:#ee7e60;stroke-miterlimit:10;stroke-width:11px"/><path d="M23.5,23.17h236a128,128,0,0,1,128,128v181H60a36.5,36.5,0,0,1-36.5-36.5h0V23.17Z" style="fill:#fff;stroke:#eec760;stroke-miterlimit:10;stroke-width:11px"/><path d="M5.5,5.5h236a128,128,0,0,1,128,128v181H42A36.5,36.5,0,0,1,5.5,278V5.5Z" style="fill:#fff;stroke:#417b97;stroke-miterlimit:10;stroke-width:11px"/><path d="M97.51,291.21a32.81,32.81,0,0,1-14-2.91,30.17,30.17,0,0,1-10.7-8.3A38.05,38.05,0,0,1,66,266.73a60.5,60.5,0,0,1-2.38-17.64A54.54,54.54,0,0,1,66,232.35a41,41,0,0,1,7-13.25,31.54,31.54,0,0,1,10.79-8.7,31.11,31.11,0,0,1,14.06-3.13,25.83,25.83,0,0,1,13.84,3.5,30.76,30.76,0,0,1,9.68,9.75h.29q-.3-3.72-.44-8.49c-.1-3.17-.15-6.45-.15-9.82V178h23.36V288.68H121.92V277.07h-.3a22.67,22.67,0,0,1-9.74,10.71A29.59,29.59,0,0,1,97.51,291.21Zm6.25-18.76A15.51,15.51,0,0,0,117,266q4.75-6.48,4.76-16.89a39.87,39.87,0,0,0-1.11-9.67,23.17,23.17,0,0,0-3.35-7.67,15.86,15.86,0,0,0-5.58-5A16.47,16.47,0,0,0,103.9,225q-8.33,0-12.42,6.62t-4.1,17.34q0,10.71,4.1,17.12t12.28,6.39Z" style="stroke-miterlimit:10;stroke:url(#a)"/><path d="M197,291.06a45.3,45.3,0,0,1-17.41-3.2,38.11,38.11,0,0,1-13.2-8.86,39,39,0,0,1-8.34-13.24,46.09,46.09,0,0,1-2.9-16.52,45.29,45.29,0,0,1,3-16.6,40.45,40.45,0,0,1,8.33-13.32,38.19,38.19,0,0,1,12.8-8.85A44.47,44.47,0,0,1,211,210a35.48,35.48,0,0,1,21.8,23.66,66.49,66.49,0,0,1,3,21.43H178.07q1.19,8.94,6,14t13.25,5.06a17.92,17.92,0,0,0,9-2,13.76,13.76,0,0,0,5.43-5.73h22.62a32.16,32.16,0,0,1-4.68,9.75,33.21,33.21,0,0,1-7.89,7.89,36.73,36.73,0,0,1-10.94,5.21A48.45,48.45,0,0,1,197,291.06Zm-1.19-67.27q-8,0-12.21,4.76t-5.35,12.95H212q-.6-8.34-4.91-13a14.62,14.62,0,0,0-11.31-4.71Z" style="stroke-miterlimit:10;stroke:url(#b)"/><path d="M235.34,209.5h24.11l9.67,31.85c.8,2.67,1.57,5.59,2.31,8.78s1.41,6.2,2,9.08c.69,3.27,1.34,6.55,1.93,9.82h.45c.6-3.27,1.24-6.55,1.93-9.82.6-2.88,1.27-5.9,2-9.08s1.52-6.1,2.31-8.78l10-31.85h23.52l-27.68,79.18H262.72Z" style="stroke-miterlimit:10;stroke:url(#c)"/><path d="M23.9,87.55H46.37V99.9h.45A29,29,0,0,1,56.41,89q5.73-3.72,14.22-3.72,15.62,0,21.72,15h.3q4.92-8,11.24-11.54a28.28,28.28,0,0,1,13.91-3.49q13.24,0,20,8t6.69,21.21v52.23H121.23V118.36q0-6.56-3-10.2t-8.71-3.64a11.79,11.79,0,0,0-9.9,4.76Q96,114,96,121.63v45.09H72.56V118.36q0-6.56-2.9-10.2T61,104.52a12,12,0,0,0-10,4.76q-3.72,4.75-3.72,12.35v45.09H23.9Z" style="stroke-miterlimit:10;stroke:url(#d)"/><path d="M194.65,169.25a44.52,44.52,0,0,1-17.26-3.2,38.51,38.51,0,0,1-21.73-22.17,47.85,47.85,0,0,1,0-33.19,38.51,38.51,0,0,1,21.73-22.17,47.74,47.74,0,0,1,34.38,0,38.24,38.24,0,0,1,13.17,8.85,40,40,0,0,1,8.41,13.32,47.85,47.85,0,0,1,0,33.19,40,40,0,0,1-8.41,13.32,38.24,38.24,0,0,1-13.17,8.85A44.23,44.23,0,0,1,194.65,169.25Zm-.15-17q8.79,0,13.47-6.92t4.69-18.08Q212.66,116,208,109t-13.47-7q-8.92,0-13.54,7t-4.61,18.31q0,11.16,4.61,18.08t13.51,6.9Z" style="stroke-miterlimit:10;stroke:url(#e)"/><path d="M250.46,56H274V166.72H250.46Z" style="stroke-miterlimit:10;stroke:url(#f)"/><path d="M292,56h23.5V166.72H292Z" style="stroke-miterlimit:10;stroke:url(#g)"/><circle cx="38.21" cy="276.32" r="14.47" style="stroke-miterlimit:10;stroke:url(#h)"/></svg>