<svg xmlns="http://www.w3.org/2000/svg" xmlns:xlink="http://www.w3.org/1999/xlink" viewBox="0 0 410 354.67"><defs><linearGradient id="a" x1="63.08" y1="234.58" x2="144.89" y2="234.58" gradientUnits="userSpaceOnUse"><stop offset="0" stop-color="#603813"/><stop offset="0.41" stop-color="#534741"/><stop offset="1"/></linearGradient><linearGradient id="b" x1="154.65" y1="249.16" x2="236.32" y2="249.16" xlink:href="#a"/><linearGradient id="c" x1="234.64" y1="249.09" x2="316.26" y2="249.09" xlink:href="#a"/><linearGradient id="d" x1="23.4" y1="126.02" x2="144.94" y2="126.02" xlink:href="#a"/><linearGradient id="e" x1="152.19" y1="127.29" x2="236.82" y2="127.29" xlink:href="#a"/><linearGradient id="f" x1="249.96" y1="111.36" x2="274.48" y2="111.36" xlink:href="#a"/><linearGradient id="g" x1="291.48" y1="111.36" x2="316" y2="111.36" xlink:href="#a"/><linearGradient id="h" x1="23.24" y1="276.32" x2="53.18" y2="276.32" xlink:href="#a"/></defs><title>vAcvvv</title><path d="M40.5,40.17h236a128,128,0,0,1,128,128v181a0,0,0,0,1,0,0H77a36.5,36.5,0,0,1-36.5-36.5V40.17A0,0,0,0,1,40.5,40.17Z" style="fill:none;stroke:#d7644f;stroke-miterlimit:10;stroke-width:11px"/><path d="M23.5,23.17h236a128,128,0,0,1,128,128v181a0,0,0,0,1,0,0H60a36.5,36.5,0,0,1-36.5-36.5V23.17A0,0,0,0,1,23.5,23.17Z" style="fill:#fff;stroke:#d7af4f;stroke-miterlimit:10;stroke-width:11px"/><path d="M5.5,5.5h236a128,128,0,0,1,128,128v181a0,0,0,0,1,0,0H42A36.5,36.5,0,0,1,5.5,278V5.5A0,0,0,0,1,5.5,5.5Z" style="fill:#fff;stroke:#357286;stroke-miterlimit:10;stroke-width:11px"/><path d="M97.51,291.21a32.76,32.76,0,0,1-14-2.91A30.2,30.2,0,0,1,72.81,280,38.09,38.09,0,0,1,66,266.73a60.72,60.72,0,0,1-2.38-17.64A54.52,54.52,0,0,1,66,232.35,41,41,0,0,1,73,219.1a31.55,31.55,0,0,1,10.79-8.7,31.19,31.19,0,0,1,14.06-3.13,25.84,25.84,0,0,1,13.84,3.5,30.76,30.76,0,0,1,9.68,9.75h.29q-.3-3.72-.44-8.49c-.1-3.17-.15-6.45-.15-9.82V178h23.36V288.68H121.92V277.07h-.3a22.65,22.65,0,0,1-9.74,10.71A29.64,29.64,0,0,1,97.51,291.21Zm6.25-18.76A15.51,15.51,0,0,0,117,266q4.76-6.48,4.76-16.89a40,40,0,0,0-1.11-9.67,23.17,23.17,0,0,0-3.35-7.67,15.84,15.84,0,0,0-5.58-5,16.41,16.41,0,0,0-7.82-1.79q-8.32,0-12.42,6.62t-4.1,17.34q0,10.71,4.1,17.12T103.76,272.45Z" style="stroke-miterlimit:10;stroke:url(#a)"/><path d="M197,291.06a45.2,45.2,0,0,1-17.41-3.2A38.09,38.09,0,0,1,166.39,279a38.94,38.94,0,0,1-8.34-13.24,46,46,0,0,1-2.9-16.52,45.41,45.41,0,0,1,3-16.6,40.55,40.55,0,0,1,8.33-13.32,38.27,38.27,0,0,1,12.8-8.85A44.47,44.47,0,0,1,211,210a35.47,35.47,0,0,1,21.8,23.66,66.5,66.5,0,0,1,3,21.43H178.07q1.19,8.94,6,14t13.25,5.06a17.9,17.9,0,0,0,9-2,13.78,13.78,0,0,0,5.43-5.73h22.62a32,32,0,0,1-4.68,9.75,33.21,33.21,0,0,1-7.89,7.89,36.71,36.71,0,0,1-10.94,5.21A48.42,48.42,0,0,1,197,291.06Zm-1.19-67.27q-8,0-12.21,4.76t-5.35,12.95H212q-.6-8.34-4.91-13A14.65,14.65,0,0,0,195.78,223.79Z" style="stroke-miterlimit:10;stroke:url(#b)"/><path d="M235.34,209.5h24.11l9.67,31.85q1.2,4,2.31,8.78c.74,3.18,1.41,6.2,2,9.08.69,3.27,1.34,6.55,1.93,9.82h.45c.6-3.27,1.24-6.55,1.93-9.82.6-2.88,1.27-5.9,2-9.08s1.52-6.1,2.31-8.78l10-31.85h23.52l-27.68,79.18H262.72Z" style="stroke-miterlimit:10;stroke:url(#c)"/><path d="M23.9,87.55H46.37V99.9h.45A29,29,0,0,1,56.41,89q5.73-3.72,14.22-3.72,15.62,0,21.72,15h.3q4.92-8,11.24-11.54a28.25,28.25,0,0,1,13.91-3.49q13.24,0,20,8t6.69,21.21v52.23H121.23V118.36q0-6.56-3-10.2t-8.71-3.64a11.79,11.79,0,0,0-9.9,4.76q-3.64,4.75-3.64,12.35v45.09H72.56V118.36q0-6.56-2.9-10.2T61,104.52a12,12,0,0,0-10,4.76q-3.72,4.75-3.72,12.35v45.09H23.9Z" style="stroke-miterlimit:10;stroke:url(#d)"/><path d="M194.65,169.25a44.64,44.64,0,0,1-17.26-3.2,38.5,38.5,0,0,1-21.73-22.17,47.85,47.85,0,0,1,0-33.19,38.5,38.5,0,0,1,21.73-22.17,47.77,47.77,0,0,1,34.38,0,38.21,38.21,0,0,1,13.17,8.85,39.89,39.89,0,0,1,8.41,13.32,47.85,47.85,0,0,1,0,33.19,39.89,39.89,0,0,1-8.41,13.32,38.21,38.21,0,0,1-13.17,8.85A44.28,44.28,0,0,1,194.65,169.25Zm-.15-17q8.79,0,13.47-6.92t4.69-18.08Q212.66,116,208,109t-13.47-7q-8.92,0-13.54,7t-4.61,18.31q0,11.16,4.61,18.08T194.5,152.29Z" style="stroke-miterlimit:10;stroke:url(#e)"/><path d="M250.46,56H274V166.72H250.46Z" style="stroke-miterlimit:10;stroke:url(#f)"/><path d="M292,56H315.5V166.72H292Z" style="stroke-miterlimit:10;stroke:url(#g)"/><circle cx="38.21" cy="276.32" r="14.47" style="stroke-miterlimit:10;stroke:url(#h)"/></svg>