<svg xmlns="http://www.w3.org/2000/svg" viewBox="0 0 375 320"><defs><style>.a{fill:none;stroke:#000;stroke-miterlimit:10;stroke-width:11px;}</style></defs><title>MollDevLogo</title><path d="M123,342.54a32.91,32.91,0,0,1-14-2.9,30.22,30.22,0,0,1-10.71-8.34,38,38,0,0,1-6.85-13.24,60.72,60.72,0,0,1-2.38-17.64,54.52,54.52,0,0,1,2.46-16.74,41.08,41.08,0,0,1,6.92-13.25,31,31,0,0,1,24.85-11.83,25.84,25.84,0,0,1,13.84,3.5,30.76,30.76,0,0,1,9.68,9.75h.29q-.3-3.72-.44-8.48c-.1-3.18-.15-6.45-.15-9.83V229.29h23.36V340H147.42V328.4h-.3a22.68,22.68,0,0,1-9.74,10.72A29.74,29.74,0,0,1,123,342.54Zm6.25-18.75a15.52,15.52,0,0,0,13.25-6.48q4.76-6.46,4.76-16.89a40,40,0,0,0-1.11-9.67,23.17,23.17,0,0,0-3.35-7.67,15.84,15.84,0,0,0-5.58-5,16.41,16.41,0,0,0-7.82-1.79q-8.32,0-12.42,6.63t-4.1,17.33q0,10.73,4.1,17.12T129.26,323.79Z" transform="translate(-22 -49.5)"/><path d="M222.47,342.39a45.2,45.2,0,0,1-17.41-3.2,38.21,38.21,0,0,1-13.17-8.85,39,39,0,0,1-8.34-13.25,46,46,0,0,1-2.9-16.52,45.32,45.32,0,0,1,3-16.59A40.34,40.34,0,0,1,192,270.66a38.3,38.3,0,0,1,12.8-8.86,44.47,44.47,0,0,1,31.77-.52A35.46,35.46,0,0,1,258.33,285a66.46,66.46,0,0,1,3,21.43H203.57q1.19,8.92,6,14t13.25,5.05a17.9,17.9,0,0,0,9-2,13.78,13.78,0,0,0,5.43-5.73h22.62a32.07,32.07,0,0,1-4.68,9.74,33.21,33.21,0,0,1-7.89,7.89,36.71,36.71,0,0,1-10.94,5.21A48.42,48.42,0,0,1,222.47,342.39Zm-1.19-67.27q-8,0-12.21,4.77t-5.35,12.94H237.5q-.6-8.32-4.91-13A14.68,14.68,0,0,0,221.28,275.12Z" transform="translate(-22 -49.5)"/><path d="M260.84,260.84H285l9.67,31.84q1.2,4,2.31,8.78t2,9.08c.69,3.28,1.34,6.55,1.93,9.83h.45c.6-3.28,1.24-6.55,1.93-9.83q.9-4.31,2-9.08t2.31-8.78l10-31.84h23.52L313.37,340H288.22Z" transform="translate(-22 -49.5)"/><path d="M49.4,138.88H71.87v12.36h.45a29,29,0,0,1,9.59-10.87q5.73-3.72,14.22-3.72,15.62,0,21.72,15h.3q4.92-8,11.24-11.53a28.26,28.26,0,0,1,13.91-3.5q13.24,0,19.95,8t6.69,21.21v52.24H146.73V169.69c0-4.37-1-7.76-3-10.2s-4.94-3.64-8.71-3.64a11.81,11.81,0,0,0-9.9,4.76q-3.64,4.77-3.64,12.35v45.1H98.06V169.69c0-4.37-1-7.76-2.9-10.2s-4.84-3.64-8.71-3.64a12,12,0,0,0-10,4.76q-3.72,4.77-3.72,12.35v45.1H49.4Z" transform="translate(-22 -49.5)"/><path d="M220.15,220.59a44.83,44.83,0,0,1-17.26-3.2,38.55,38.55,0,0,1-21.73-22.18,47.82,47.82,0,0,1,0-33.18,38.55,38.55,0,0,1,21.73-22.18,47.77,47.77,0,0,1,34.38,0,38.37,38.37,0,0,1,13.17,8.86A39.89,39.89,0,0,1,258.85,162a47.82,47.82,0,0,1,0,33.18,39.89,39.89,0,0,1-8.41,13.32,38.23,38.23,0,0,1-13.17,8.86A44.47,44.47,0,0,1,220.15,220.59Zm-.15-17q8.79,0,13.47-6.92t4.69-18.08q0-11.31-4.69-18.31t-13.47-7q-8.92,0-13.54,7t-4.61,18.31q0,11.16,4.61,18.08T220,203.62Z" transform="translate(-22 -49.5)"/><path d="M276,107.33h23.52V218.06H276Z" transform="translate(-22 -49.5)"/><path d="M317.48,107.33H341V218.06H317.48Z" transform="translate(-22 -49.5)"/><circle cx="41.71" cy="278.16" r="14.47"/><path class="a" d="M5.5,5.5h236a128,128,0,0,1,128,128v181a0,0,0,0,1,0,0H42A36.5,36.5,0,0,1,5.5,278V5.5A0,0,0,0,1,5.5,5.5Z"/></svg>