<?xml version="1.0" standalone="no"?>
<!DOCTYPE svg PUBLIC "-//W3C//DTD SVG 20010904//EN"
 "http://www.w3.org/TR/2001/REC-SVG-20010904/DTD/svg10.dtd">
<svg version="1.0" xmlns="http://www.w3.org/2000/svg"
 width="261.000000pt" height="261.000000pt" viewBox="0 0 261.000000 261.000000"
 preserveAspectRatio="xMidYMid meet">
<metadata>
Created by potrace 1.11, written by Peter Selinger 2001-2013
</metadata>
<g transform="translate(0.000000,261.000000) scale(0.100000,-0.100000)"
fill="#000000" stroke="none">
<path d="M22 1463 l3 -1128 32 -68 c42 -89 121 -168 210 -210 l68 -32 1123 -3
1123 -2 -4 707 c-4 686 -4 711 -25 798 -68 281 -178 482 -366 671 -189 188
-390 298 -671 366 -87 21 -113 21 -793 25 l-702 4 2 -1128z m1013 983 c252
-59 442 -163 615 -336 173 -173 275 -361 336 -615 15 -61 18 -155 21 -713 l4
-642 -818 2 -818 3 -50 23 c-65 30 -128 92 -157 156 l-23 51 -3 1048 -2 1049
412 -5 c336 -4 426 -8 483 -21z m615 -140 c308 -182 524 -493 585 -840 12 -73
15 -196 15 -707 l0 -619 -59 0 -60 0 -4 653 c-3 621 -4 656 -24 737 -27 106
-76 247 -113 321 -79 156 -223 333 -358 441 -40 32 -70 58 -65 58 5 0 42 -20
83 -44z m335 -92 c216 -162 364 -390 441 -676 l28 -103 4 -647 3 -648 -45 0
-46 0 0 563 c0 336 -4 608 -11 673 -32 316 -162 590 -389 817 -110 110 -108
114 15 21z"/>
<path d="M994 2136 c-27 -13 -66 -42 -85 -64 l-36 -42 -29 31 c-15 16 -49 43
-75 59 -86 56 -211 34 -279 -48 l-30 -37 0 48 0 47 -105 0 -105 0 0 -360 0
-360 105 0 105 0 0 213 c0 122 5 229 11 252 14 50 42 81 86 96 27 9 40 7 71
-8 56 -27 61 -53 61 -320 l1 -233 110 0 110 0 0 213 c0 269 11 311 86 343 42
18 98 2 122 -34 15 -23 17 -59 20 -274 l3 -248 105 0 105 0 -3 293 c-3 278 -4
294 -25 333 -61 115 -204 158 -329 100z"/>
<path d="M1140 1118 l0 -192 -42 41 c-63 60 -95 73 -180 73 -123 0 -218 -60
-273 -174 -83 -170 -46 -425 76 -529 114 -98 320 -88 393 19 l26 39 0 -48 0
-47 105 0 105 0 0 505 0 505 -105 0 -105 0 0 -192z m-83 -268 c54 -32 78 -91
78 -190 0 -99 -21 -151 -75 -187 -39 -27 -107 -30 -151 -7 -59 30 -92 158 -69
269 10 47 21 68 50 97 33 34 43 38 86 38 31 0 61 -7 81 -20z"/>
<path d="M289 501 c-35 -35 -39 -44 -39 -91 0 -47 4 -56 39 -91 35 -35 44 -39
91 -39 47 0 56 4 91 39 35 35 39 44 39 91 0 47 -4 56 -39 91 -35 35 -44 39
-91 39 -47 0 -56 -4 -91 -39z"/>
</g>
</svg>
